<?xml version="1.0" encoding="iso-8859-1"?>
<!-- Generator: Adobe Illustrator 19.0.0, SVG Export Plug-In . SVG Version: 6.00 Build 0)  -->
<svg version="1.1" id="Layer_1" xmlns="http://www.w3.org/2000/svg" xmlns:xlink="http://www.w3.org/1999/xlink" x="0px" y="0px"
	 viewBox="0 0 512 512" style="enable-background:new 0 0 512 512;" xml:space="preserve">
<g>
	<g>
		<path d="M503.983,384.802h-9.086V102.079c0-13.851-11.268-25.119-25.119-25.119H42.221c-13.851,0-25.119,11.268-25.119,25.119
			v282.722H8.017c-4.427,0-8.017,3.589-8.017,8.017v17.102c0,13.851,11.268,25.119,25.119,25.119h461.762
			c13.851,0,25.119-11.268,25.119-25.119v-17.102C512,388.391,508.411,384.802,503.983,384.802z M33.136,102.079
			c0-5.01,4.076-9.086,9.086-9.086h427.557c5.01,0,9.086,4.076,9.086,9.086v282.722H33.136V102.079z M495.967,409.921
			c0,5.01-4.076,9.086-9.086,9.086H25.119c-5.01,0-9.086-4.076-9.086-9.086v-9.086h206.323c-0.012,0.177-0.027,0.354-0.027,0.534
			c0,4.427,3.589,8.017,8.017,8.017h51.307c4.427,0,8.017-3.589,8.017-8.017c0-0.181-0.015-0.357-0.027-0.534h206.323V409.921z"/>
	</g>
</g>
<g>
	<g>
		<path d="M452.676,111.165H59.324c-4.427,0-8.017,3.589-8.017,8.017v239.432c0,4.427,3.589,8.017,8.017,8.017h393.353
			c4.427,0,8.017-3.589,8.017-8.017V119.182C460.693,114.754,457.104,111.165,452.676,111.165z M179.574,350.597h-69.478v-24.8
			c0-7.603,4.846-14.327,12.059-16.732l16.047-5.349l41.372,33.097V350.597z M187.591,264.017h12.77
			c8.172,0,15.955-2.499,22.496-7.118c-0.36,2.338-1.611,4.456-3.518,5.886l-23.446,17.585c-1.562,1.172-3.498,1.817-5.451,1.817
			h-5.7c-1.953,0-3.89-0.646-5.451-1.817l-23.448-17.585c-2.092-1.569-3.407-3.963-3.607-6.572l-2.696-35.05
			c12.91-0.44,49.387-2.874,77.357-16.269l-2.176,28.294l-8.034,8.034c-4.36,4.36-10.157,6.762-16.323,6.762h-12.771
			c-4.427,0-8.017,3.589-8.017,8.017C179.574,260.428,183.163,264.017,187.591,264.017z M148.307,205.148l-1.196-15.549
			c-0.565-7.356,1.883-14.388,6.896-19.802c5.012-5.413,11.837-8.395,19.214-8.395h28.74c7.378,0,14.202,2.981,19.214,8.395
			c4.177,4.511,6.566,10.147,6.922,16.156C202.835,202.131,160.627,204.733,148.307,205.148z M153.921,295.759
			c2.766-2.728,4.872-6.069,6.133-9.772l9.616,7.212c4.319,3.24,9.672,5.024,15.071,5.024h5.7c5.399,0,10.752-1.784,15.071-5.024
			l9.616-7.212c1.261,3.703,3.367,7.045,6.133,9.772l-33.67,26.936L153.921,295.759z M265.086,350.597h-69.478v-13.784
			l41.372-33.097l16.047,5.349c7.213,2.405,12.059,9.128,12.059,16.732V350.597z M444.66,350.597H281.119v-24.8
			c0-14.516-9.252-27.352-23.023-31.943l-22.072-7.357c-3.717-1.239-6.212-4.702-6.212-8.62v-2.942
			c5.286-4.333,8.595-10.647,9.122-17.493l5.124-66.615c0.003-0.037,0.003-0.075,0.005-0.112c0.002-0.04,0.004-0.079,0.006-0.12
			c0.827-11.61-3.217-23.149-11.13-31.694c-7.964-8.599-19.256-13.532-30.979-13.532h-28.74c-11.723,0-23.014,4.933-30.979,13.534
			c-7.965,8.601-12.018,20.237-11.119,31.926l5.124,66.613c0.526,6.846,3.836,13.16,9.122,17.494v2.942
			c0,3.918-2.496,7.381-6.212,8.62l-22.072,7.357c-13.771,4.59-23.023,17.427-23.023,31.942v24.8H67.34V127.198H444.66V350.597z"/>
	</g>
</g>
<g>
	<g>
		<path d="M409.921,162.472H281.653c-4.427,0-8.017,3.589-8.017,8.017s3.589,8.017,8.017,8.017h128.267
			c4.427,0,8.017-3.589,8.017-8.017S414.348,162.472,409.921,162.472z"/>
	</g>
</g>
<g>
	<g>
		<path d="M409.921,196.676H281.653c-4.427,0-8.017,3.589-8.017,8.017s3.589,8.017,8.017,8.017h128.267
			c4.427,0,8.017-3.589,8.017-8.017S414.348,196.676,409.921,196.676z"/>
	</g>
</g>
<g>
	<g>
		<path d="M332.96,230.881h-17.102c-4.427,0-8.017,3.589-8.017,8.017s3.589,8.017,8.017,8.017h17.102
			c4.427,0,8.017-3.589,8.017-8.017S337.389,230.881,332.96,230.881z"/>
	</g>
</g>
<g>
	<g>
		<path d="M332.96,265.086h-17.102c-4.427,0-8.017,3.589-8.017,8.017s3.589,8.017,8.017,8.017h17.102
			c4.427,0,8.017-3.589,8.017-8.017S337.389,265.086,332.96,265.086z"/>
	</g>
</g>
<g>
	<g>
		<path d="M332.96,299.29h-17.102c-4.427,0-8.017,3.589-8.017,8.017s3.589,8.017,8.017,8.017h17.102
			c4.427,0,8.017-3.589,8.017-8.017S337.389,299.29,332.96,299.29z"/>
	</g>
</g>
<g>
	<g>
		<path d="M409.92,230.88h-42.756c-4.427,0-8.017,3.589-8.017,8.017c0,4.427,3.589,8.017,8.017,8.017h42.756
			c4.427,0,8.017-3.589,8.017-8.017C417.936,234.469,414.347,230.88,409.92,230.88z"/>
	</g>
</g>
<g>
	<g>
		<path d="M409.92,265.085h-42.756c-4.427,0-8.017,3.589-8.017,8.017c0,4.427,3.589,8.017,8.017,8.017h42.756
			c4.427,0,8.017-3.589,8.017-8.017C417.936,268.674,414.347,265.085,409.92,265.085z"/>
	</g>
</g>
<g>
	<g>
		<path d="M409.92,299.289h-42.756c-4.427,0-8.017,3.589-8.017,8.017c0,4.427,3.589,8.017,8.017,8.017h42.756
			c4.427,0,8.017-3.589,8.017-8.017C417.936,302.878,414.347,299.289,409.92,299.289z"/>
	</g>
</g>
<g>
</g>
<g>
</g>
<g>
</g>
<g>
</g>
<g>
</g>
<g>
</g>
<g>
</g>
<g>
</g>
<g>
</g>
<g>
</g>
<g>
</g>
<g>
</g>
<g>
</g>
<g>
</g>
<g>
</g>
</svg>
