<svg width="76" height="76" viewBox="0 0 76 76" fill="none" xmlns="http://www.w3.org/2000/svg">
<rect width="76" height="76" fill="#E82828"/>
<g clip-path="url(#clip0_348_1196)">
<path d="M58.0001 31.4399V49.8299C58.0001 49.8299 58.0001 49.8299 58.0001 49.8999C57.8496 50.827 57.3531 51.6625 56.6107 52.2378C55.8684 52.8131 54.9354 53.0855 54.0001 52.9999H21.6501C20.6723 52.9868 19.7395 52.587 19.0555 51.8881C18.3715 51.1891 17.9921 50.2478 18.0001 49.2699V31.7399C18.0001 31.6399 18.0001 31.5499 18.0001 31.4399L18.1401 31.5099L34.3801 42.3399C35.4223 43.1284 36.6933 43.555 38.0001 43.555C39.3069 43.555 40.578 43.1284 41.6201 42.3399L56.1101 32.6699C56.7301 32.2499 57.3701 31.8499 58.0001 31.4399Z" fill="white"/>
<path d="M58.0001 27.21C57.8922 27.6228 57.7378 28.022 57.5401 28.4C57.2314 28.88 56.8384 29.3001 56.3801 29.64C50.9534 33.3 45.5101 36.94 40.0501 40.56C39.4525 40.9935 38.7332 41.2268 37.9951 41.2268C37.2569 41.2268 36.5376 40.9935 35.9401 40.56C30.4801 36.9334 25.0234 33.29 19.5701 29.63C18.9445 29.2173 18.4679 28.6146 18.2105 27.9108C17.9531 27.2069 17.9284 26.439 18.1401 25.72C18.3437 24.9639 18.7832 24.2924 19.3946 23.8032C20.0061 23.3141 20.7577 23.0327 21.5401 23H54.1101C54.9183 22.9605 55.7173 23.1863 56.3853 23.6431C57.0533 24.0999 57.5537 24.7625 57.8101 25.53C57.8801 25.75 57.9401 25.97 58.0001 26.2V27.21Z" fill="white"/>
</g>
<defs>
<clipPath id="clip0_348_1196">
<rect width="40" height="30.03" fill="white" transform="translate(18 23)"/>
</clipPath>
</defs>
</svg>
