<svg width="76" height="76" viewBox="0 0 76 76" fill="none" xmlns="http://www.w3.org/2000/svg">
<rect width="76" height="76" fill="#4267B2"/>
<g clip-path="url(#clip0_348_1178)">
<path d="M44.58 18L46.64 18.16L47.92 18.28V24.64H47.42C46.07 24.64 44.71 24.64 43.37 24.72C43.0634 24.7093 42.7579 24.7603 42.4714 24.8699C42.1849 24.9796 41.9234 25.1456 41.7023 25.3583C41.4813 25.571 41.3052 25.8259 41.1846 26.1079C41.0639 26.3899 41.0012 26.6933 41 27C40.87 29 41 31 41 33H47.38L46.49 40.11H40.91C40.91 40.25 40.91 40.36 40.91 40.47V57.65C40.91 57.77 40.91 57.88 40.91 58H33.74C33.74 57.88 33.74 57.77 33.74 57.65V40.13H28V33H33.76V32.52C33.76 30.42 33.76 28.32 33.84 26.23C33.8527 25.0349 34.1176 23.856 34.6174 22.7704C35.1171 21.6847 35.8404 20.7168 36.74 19.93C38.0277 18.8816 39.597 18.2379 41.25 18.08L41.62 18H44.58Z" fill="white"/>
</g>
<defs>
<clipPath id="clip0_348_1178">
<rect width="19.92" height="40" fill="white" transform="translate(28 18)"/>
</clipPath>
</defs>
</svg>
