<svg width="60" height="30" viewBox="0 0 60 30" fill="none" xmlns="http://www.w3.org/2000/svg">
<path d="M30 0C13.4315 0 0 6.71629 0 15C0 23.2837 13.4315 30 30 30C46.5685 30 60 23.2837 60 15C60 6.71629 46.5695 0 30 0ZM30 27.6325C14.7386 27.6325 2.36753 21.9766 2.36753 15.0011C2.36753 8.02547 14.7396 2.36859 30 2.36859C45.2604 2.36859 57.6325 8.02441 57.6325 15C57.6325 21.9756 45.2614 27.6314 30 27.6314V27.6325ZM26.2164 12.3689V10.0004H34.68V12.3689H31.632V20.0007H29.2634V12.3689H26.2153H26.2164ZM44.8963 10.0004V20.0007H42.5277L38.2318 14.0475V20.0007H35.8633V10.0004H38.2318L42.5277 15.9536V10.0004H44.8963ZM15.0339 20.0007V10.0004H17.4025L20.0335 14.0475L22.6646 10.0004H25.0332V20.0007H22.6646V14.3438L20.8686 17.1051H19.1985L17.4025 14.3438V20.0007H15.0339Z" fill="white"/>
</svg>
