<svg width="76" height="76" viewBox="0 0 76 76" fill="none" xmlns="http://www.w3.org/2000/svg">
<rect width="76" height="76" fill="#03A9F4"/>
<g clip-path="url(#clip0_348_1192)">
<path d="M18 50.9C22.3019 51.3652 26.6176 50.1546 30.05 47.52C28.3452 47.4453 26.7026 46.8586 25.3362 45.8365C23.9698 44.8144 22.9431 43.4042 22.39 41.79C23.5927 41.9731 24.8198 41.9153 26 41.62C24.1367 41.2094 22.4727 40.1672 21.29 38.67C20.1087 37.2009 19.479 35.3647 19.51 33.48C20.6062 34.0771 21.8232 34.4189 23.07 34.48C19.48 31.48 18.64 27.83 20.64 23.48C22.7067 26.0208 25.2827 28.1005 28.202 29.5852C31.1214 31.0698 34.3194 31.9265 37.59 32.1C37.59 31.28 37.49 30.5 37.51 29.73C37.6103 28.0204 38.2427 26.3851 39.3185 25.0528C40.3944 23.7205 41.8599 22.758 43.51 22.3C44.9067 21.8974 46.3858 21.8771 47.793 22.2412C49.2002 22.6053 50.4839 23.3405 51.51 24.37C51.5747 24.446 51.6608 24.501 51.757 24.5277C51.8533 24.5545 51.9553 24.5518 52.05 24.52C53.757 24.137 55.3934 23.4891 56.9 22.6C56.3022 24.4248 55.1083 25.9956 53.51 27.06C55.0569 26.8854 56.5697 26.4844 58 25.87C57.0162 27.3609 55.7852 28.6731 54.36 29.75C54.1976 29.856 54.0695 30.007 53.9914 30.1846C53.9132 30.3621 53.8884 30.5586 53.92 30.75C53.9918 34.4694 53.1723 38.152 51.53 41.49C49.652 45.5154 46.6384 48.9043 42.86 51.24C40.1427 52.9145 37.0973 53.9853 33.93 54.38C31.1389 54.7344 28.3075 54.6059 25.56 54C22.9459 53.4314 20.4494 52.4166 18.18 51L18 50.9Z" fill="white"/>
</g>
<defs>
<clipPath id="clip0_348_1192">
<rect width="40" height="32.57" fill="white" transform="translate(18 22)"/>
</clipPath>
</defs>
</svg>
