<svg width="76" height="76" viewBox="0 0 76 76" fill="none" xmlns="http://www.w3.org/2000/svg">
<rect width="76" height="76" fill="#1BD741"/>
<path d="M37 18H39.5C39.98 18.06 40.5 18.1 40.93 18.17C45.3194 18.7662 49.3734 20.8443 52.42 24.06C55.1877 26.9036 57.0286 30.5191 57.7 34.43C57.82 35.15 57.9 35.87 58 36.59V39.09C58 39.22 57.94 39.35 57.93 39.47C57.7665 41.6781 57.2182 43.8407 56.31 45.86C55.1941 48.3412 53.5838 50.5686 51.5774 52.406C49.5711 54.2434 47.211 55.6522 44.6415 56.5462C42.072 57.4401 39.3472 57.8004 36.6336 57.6051C33.9201 57.4097 31.2749 56.6628 28.86 55.41C28.6661 55.3211 28.4488 55.2966 28.24 55.34C25.8867 55.94 23.5533 56.55 21.24 57.17C20.24 57.43 19.24 57.72 18.24 58H18C18.91 54.68 19.83 51.36 20.73 48C20.7777 47.8046 20.7529 47.5985 20.66 47.42C19.125 44.6505 18.2773 41.553 18.1882 38.3879C18.0991 35.2227 18.7711 32.0824 20.1478 29.2309C21.5246 26.3795 23.5658 23.9002 26.0998 22.0015C28.6338 20.1029 31.5866 18.8403 34.71 18.32C35.47 18.18 36.23 18.1 37 18ZM22.81 53.19L23.21 53.11C25.02 52.64 26.83 52.18 28.64 51.69C28.7744 51.6532 28.9149 51.6448 29.0527 51.6655C29.1904 51.6862 29.3224 51.7354 29.44 51.81C31.7605 53.2709 34.4146 54.1172 37.1525 54.2694C39.8903 54.4216 42.6219 53.8747 45.09 52.68C48.7129 51.0424 51.6154 48.1416 53.2552 44.5198C54.895 40.8979 55.1597 36.8029 54 33C53.0286 29.8251 51.1242 27.0161 48.5346 24.9383C45.945 22.8605 42.7899 21.6102 39.48 21.35C37.1328 21.1151 34.7628 21.4021 32.5395 22.1904C30.3163 22.9788 28.2949 24.2489 26.62 25.91C23.9392 28.4637 22.2051 31.8522 21.7018 35.5203C21.1986 39.1884 21.956 42.9186 23.85 46.1C24.0828 46.4284 24.2319 46.8087 24.2841 47.2078C24.3364 47.6069 24.2904 48.0127 24.15 48.39C23.65 50 23.26 51.54 22.81 53.19Z" fill="white"/>
<path d="M43.3501 47.25C42.0819 47.2009 40.8354 46.9054 39.6801 46.38C36.4348 45.18 33.5977 43.0817 31.5001 40.33C30.3801 39.0831 29.4286 37.6946 28.6701 36.2C28.2524 35.4404 28.0112 34.5964 27.9644 33.7308C27.9177 32.8652 28.0666 32.0002 28.4001 31.2C28.7691 30.4914 29.2079 29.8214 29.7101 29.2C29.857 29.0149 30.0441 28.8656 30.2572 28.7634C30.4703 28.6612 30.7038 28.6088 30.9401 28.61C31.3801 28.61 31.8301 28.61 32.2701 28.61C32.4403 28.6313 32.6005 28.7025 32.7304 28.8146C32.8602 28.9267 32.9541 29.0747 33.0001 29.24C33.3101 29.95 33.6101 30.67 33.9101 31.39C34.1501 31.96 34.3801 32.54 34.6401 33.11C34.7361 33.281 34.7797 33.4765 34.7655 33.672C34.7512 33.8676 34.6798 34.0547 34.5601 34.21C34.1901 34.71 33.8201 35.21 33.4301 35.7C33.0401 36.19 33.0001 36.35 33.3301 36.91C34.8483 39.5206 37.1962 41.5482 40.0001 42.67C40.6201 42.92 40.8301 42.88 41.2601 42.36C41.6901 41.84 42.1901 41.21 42.6501 40.63C42.9601 40.24 43.1601 40.14 43.6501 40.32C44.3001 40.57 44.9401 40.87 45.5801 41.16C46.0101 41.36 46.4301 41.6 46.8701 41.79C47.3101 41.98 47.5201 42.01 47.8701 42.14C47.9945 42.1836 48.1011 42.267 48.1734 42.3772C48.2457 42.4875 48.2797 42.6185 48.2701 42.75C48.3287 43.3935 48.2228 44.0414 47.9621 44.6327C47.7014 45.2239 47.2947 45.7392 46.7801 46.13C45.8033 46.8938 44.5894 47.2902 43.3501 47.25Z" fill="white"/>
</svg>
