<svg width="74" height="79" viewBox="0 0 74 79" fill="none" xmlns="http://www.w3.org/2000/svg">
<path d="M37.1378 44.9465C42.8878 44.9465 47.549 40.2852 47.549 34.5353C47.549 28.7853 42.8878 24.124 37.1378 24.124C31.3878 24.124 26.7266 28.7853 26.7266 34.5353C26.7266 40.2852 31.3878 44.9465 37.1378 44.9465Z" stroke="#202020" stroke-width="3" stroke-linecap="round" stroke-linejoin="round"/>
<path d="M25.4253 50.1519H48.8506" stroke="#202020" stroke-width="3" stroke-linecap="round" stroke-linejoin="round"/>
<path d="M17.6167 77.4814V57.9603C17.6167 55.8894 18.4394 53.9033 19.9037 52.4389C21.3681 50.9745 23.3542 50.1519 25.4251 50.1519V50.1519" stroke="#202020" stroke-width="3" stroke-linecap="round" stroke-linejoin="round"/>
<path d="M25.4253 59.9126V77.4816" stroke="#202020" stroke-width="3" stroke-linecap="round" stroke-linejoin="round"/>
<path d="M48.8506 77.4816V59.9126" stroke="#202020" stroke-width="3" stroke-linecap="round" stroke-linejoin="round"/>
<path d="M48.8506 50.1519C50.9215 50.1519 52.9076 50.9745 54.372 52.4389C55.8363 53.9033 56.659 55.8894 56.659 57.9603V77.4814" stroke="#202020" stroke-width="3" stroke-linecap="round" stroke-linejoin="round"/>
<path d="M52.755 22.8225C58.505 22.8225 63.1662 18.1612 63.1662 12.4112C63.1662 6.66127 58.505 2 52.755 2C47.005 2 42.3438 6.66127 42.3438 12.4112C42.3438 18.1612 47.005 22.8225 52.755 22.8225Z" stroke="#202020" stroke-width="3" stroke-linecap="round" stroke-linejoin="round"/>
<path d="M64.4673 37.7886V67.0702" stroke="#202020" stroke-width="3" stroke-linecap="round" stroke-linejoin="round"/>
<path d="M51.4536 28.0281H64.4677" stroke="#202020" stroke-width="3" stroke-linecap="round" stroke-linejoin="round"/>
<path d="M64.4673 67.0703V77.4816" stroke="#202020" stroke-width="3" stroke-linecap="round" stroke-linejoin="round"/>
<path d="M64.4673 28.0281C66.5382 28.0281 68.5243 28.8507 69.9887 30.3151C71.453 31.7795 72.2757 33.7656 72.2757 35.8365V67.0702C72.2757 68.1057 71.8644 69.0987 71.1322 69.8309C70.4 70.5631 69.407 70.9744 68.3715 70.9744V70.9744C67.336 70.9744 66.343 70.5631 65.6108 69.8309C64.8786 69.0987 64.4673 68.1057 64.4673 67.0702V37.7886" stroke="#202020" stroke-width="3" stroke-linecap="round" stroke-linejoin="round"/>
<path d="M21.5211 22.8225C27.2711 22.8225 31.9323 18.1612 31.9323 12.4112C31.9323 6.66127 27.2711 2 21.5211 2C15.7711 2 11.1099 6.66127 11.1099 12.4112C11.1099 18.1612 15.7711 22.8225 21.5211 22.8225Z" stroke="#202020" stroke-width="3" stroke-linecap="round" stroke-linejoin="round"/>
<path d="M9.80859 28.0281H22.8226" stroke="#202020" stroke-width="3" stroke-linecap="round" stroke-linejoin="round"/>
<path d="M9.80859 67.0702V37.7886" stroke="#202020" stroke-width="3" stroke-linecap="round" stroke-linejoin="round"/>
<path d="M9.80859 77.4816V67.0703" stroke="#202020" stroke-width="3" stroke-linecap="round" stroke-linejoin="round"/>
<path d="M9.80843 37.7886V67.0702C9.80843 68.1057 9.39709 69.0987 8.66491 69.8309C7.93273 70.5631 6.93968 70.9744 5.90421 70.9744V70.9744C4.86875 70.9744 3.8757 70.5631 3.14352 69.8309C2.41134 69.0987 2 68.1057 2 67.0702V35.8365C2 33.7656 2.82267 31.7795 4.28704 30.3151C5.7514 28.8507 7.7375 28.0281 9.80843 28.0281V28.0281" stroke="#202020" stroke-width="3" stroke-linecap="round" stroke-linejoin="round"/>
</svg>
